# xmcd
#
# Track frame offsets: 
#        150
#        1725
#        15016
#        27617
#        40466
#        46377
#        59407
#        67418
#        81754
#        101464
#        113496
#        130265
#        137999
#        148511
#        173996
#        185074
#        191443
#        198081
#        208922
#        225162
#        242231
#        255550
#        270016
#        285157
#
# Disc length: 4045 seconds
#
# Revision: 0
# Processed by: cddbd v1.5.2PL0 Copyright (c) Steve Scherf et al.
# Submitted via: ExactAudioCopy v0.99pb5
#
DISCID=490fcb18
DTITLE=Dj Papsta - Spring Break 2010 Megamix
DYEAR=2010
DGENRE=R&B
TTITLE0=The Fugees - Fugee La
TTITLE1=Trey Songz - Say Aah
TTITLE2=Soulja Boy - Back Dat Donk Up
TTITLE3=Fugees - Killing Me Softly
TTITLE4=Beyonce - Get Me Bodied
TTITLE5=E-40 - Slidin Down The Pole
TTITLE6=Too Short - Blow The Whistle
TTITLE7=Lil Troy - Wanna Be A Baller
TTITLE8=E-40 - No Hoe
TTITLE9=Ludacris - Im On Fire
TTITLE10=Estelle - Freak
TTITLE11=Johnny Cash - Ring of Fire
TTITLE12=Lady Gaga - Bad Romance
TTITLE13=Rihanna - Rude Boy
TTITLE14=Fergie - My Humps
TTITLE15=The Marvelletes - Mr Postman
TTITLE16=Justin Timberlake - Cry Me A River
TTITLE17=Dj Papsta - Spring Break Breakdown
TTITLE18=Baby Bash - Outta Control
TTITLE19=Three Six Mafia and FloRida - Feel It
TTITLE20=Jay-Z - Forever Young
TTITLE21=Ludacris - How Low
TTITLE22=Young Money - Every Girl
TTITLE23=Lloyd Banks and Juelz Santana - Beamer Benz and Bentleys
EXTD=
EXTT0=
EXTT1=
EXTT2=
EXTT3=
EXTT4=
EXTT5=
EXTT6=
EXTT7=
EXTT8=
EXTT9=
EXTT10=
EXTT11=
EXTT12=
EXTT13=
EXTT14=
EXTT15=
EXTT16=
EXTT17=
EXTT18=
EXTT19=
EXTT20=
EXTT21=
EXTT22=
EXTT23=
PLAYORDER=
